<svg preserveAspectRatio="none" overflow="visible" style="display: block;" width="90" height="90" viewBox="0 0 90 90" fill="none" xmlns="http://www.w3.org/2000/svg">
<g id="&#208;&#152;&#208;&#187;&#208;&#187;&#209;&#142;&#209;&#129;&#209;&#130;&#209;&#128;&#208;&#176;&#209;&#134;&#208;&#184;&#209;&#143; &#209;&#132;&#208;&#190;&#209;&#130;&#208;&#190;&#209;&#129;&#208;&#184;&#208;&#189;&#209;&#130;&#208;&#181;&#208;&#183;&#208;&#176;">
<circle id="&#208;&#158;&#209;&#128;&#208;&#181;&#208;&#190;&#208;&#187;" cx="44.1" cy="45.9" r="38.7" fill="#DFD9FF"/>
<path id="&#208;&#161;&#208;&#178;&#208;&#181;&#209;&#130;&#208;&#187;&#209;&#139;&#208;&#185; &#208;&#187;&#208;&#184;&#209;&#129;&#209;&#130;" d="M42.9632 70.2C10.2527 67.5064 2.98374 33.3875 7.52686 22.6131C33.877 20.8174 48.415 40.5704 42.9632 70.2Z" fill="#D0FF80"/>
<path id="&#208;&#146;&#208;&#181;&#209;&#128;&#209;&#133;&#208;&#189;&#208;&#184;&#208;&#185; &#208;&#187;&#208;&#184;&#209;&#129;&#209;&#130;" d="M45.1109 50.4C28.0582 34.2 39.7258 6.3 60.3685 2.7C72.9337 27.9 55.881 47.7 45.1109 50.4Z" fill="#66B86D"/>
<path id="&#208;&#145;&#208;&#190;&#208;&#186;&#208;&#190;&#208;&#178;&#208;&#190;&#208;&#185; &#208;&#187;&#208;&#184;&#209;&#129;&#209;&#130;" d="M44.4617 70.449C40.7179 51.2236 66.9247 40.2377 81.9 43.8997C79.0921 66.787 58.5011 75.942 44.4617 70.449Z" fill="#419750"/>
<path id="&#208;&#161;&#209;&#130;&#208;&#181;&#208;&#177;&#208;&#187;&#208;&#184;" d="M44.1 88.2C44.1 64.2 48 42 55.8 21.6M44.1 80.1C38.7 63.9 31.5 50.4 22.5 39.6M45 80.1C49.8 69.9 57.6 61.5 68.4 54.9" stroke-width="1.98" stroke="#86BE60"/>
</g>
</svg>
