<svg preserveAspectRatio="none" overflow="visible" style="display: block;" width="112" height="126" viewBox="0 0 112 126" fill="none" xmlns="http://www.w3.org/2000/svg">
<g id="&#208;&#157;&#208;&#176;&#208;&#179;&#209;&#128;&#208;&#176;&#208;&#180;&#208;&#189;&#208;&#190;&#208;&#185; &#208;&#186;&#209;&#131;&#208;&#177;&#208;&#190;&#208;&#186;">
<circle id="&#208;&#158;&#209;&#128;&#208;&#181;&#208;&#190;&#208;&#187; &#208;&#189;&#208;&#176;&#208;&#179;&#209;&#128;&#208;&#176;&#208;&#180;&#209;&#139;" cx="55.5" cy="66.5" r="51.5" fill="#302B69"/>
<path id="&#208;&#160;&#209;&#131;&#209;&#135;&#208;&#186;&#208;&#184; &#208;&#186;&#209;&#131;&#208;&#177;&#208;&#186;&#208;&#176;" d="M30.3959 27H7.27889C-0.0765152 73.3636 26.1928 85.7272 37.7513 81.0909M79.7822 27H105.001C111.305 73.3636 86.0868 85.7272 76.6299 81.0909" stroke-width="9" stroke="#FFCF4D"/>
<path id="&#208;&#167;&#208;&#176;&#209;&#136;&#208;&#176;" d="M23 19H90L85 53C81.6667 67 74.3333 74.6667 63 76V93L73 95L76 104H38L41 95L51 93V76C39 74.6667 31.3333 67 28 53L23 19Z" fill="url(#paint0_linear_0_8)"/>
<path id="&#208;&#154;&#208;&#190;&#208;&#189;&#209;&#132;&#208;&#181;&#209;&#130;&#209;&#130;&#208;&#184; &#208;&#183;&#208;&#178;&#208;&#181;&#208;&#183;&#208;&#180;&#208;&#176;" d="M103 95L106 100.294L112 102.412L108 106.647L109 113L103 109.824L97 113L98 106.647L94 102.412L100 100.294L103 95Z" fill="#FFADB8"/>
<rect id="&#208;&#154;&#208;&#190;&#208;&#189;&#209;&#132;&#208;&#181;&#209;&#130;&#209;&#130;&#208;&#184;" x="1" y="91" width="18" height="7" rx="3" transform="rotate(-20 1 91)" fill="#FF999D"/>
<path id="&#208;&#151;&#208;&#178;&#208;&#181;&#208;&#183;&#208;&#180;&#208;&#176; &#208;&#189;&#208;&#176; &#208;&#186;&#209;&#131;&#208;&#177;&#208;&#186;&#208;&#181;" d="M56 33L60 41L69 43L63 50L64 59L56 55L48 59L49 50L43 43L52 41L56 33Z" fill="#FFF5CE"/>
</g>
<defs>
<linearGradient id="paint0_linear_0_8" x1="23" y1="19" x2="23" y2="104" gradientUnits="userSpaceOnUse">
<stop stop-color="#FFE996"/>
<stop offset="1" stop-color="#FFB832"/>
</linearGradient>
</defs>
</svg>
